<?xml version="1.0" encoding="UTF-8"?>
<!-- Generator: Adobe Illustrator 23.0.1, SVG Export Plug-In . SVG Version: 6.00 Build 0)  -->
<!DOCTYPE svg PUBLIC "-//W3C//DTD SVG 1.1//EN" "http://www.w3.org/Graphics/SVG/1.1/DTD/svg11.dtd">
<svg version="1.1" id="Livello_1" xmlns:x="http://ns.adobe.com/Extensibility/1.0/" xmlns:i="http://ns.adobe.com/AdobeIllustrator/10.0/" xmlns:graph="http://ns.adobe.com/Graphs/1.0/" xmlns="http://www.w3.org/2000/svg" xmlns:xlink="http://www.w3.org/1999/xlink" x="0px" y="0px" viewBox="0 0 1831.085 1703.335" enable-background="new 0 0 1831.085 1703.335" xml:space="preserve">
<path fill="#303030" d="M 1831.1 894.3 c 0.1 -14.3 -7.3 -27.6 -19.5 -35.1 h -0.2 l -0.8 -0.4 l -634.5 -375.6 c -2.7 -1.9 -5.6 -3.5 -8.5 -5.1 c -24.5 -12.6 -53.6 -12.6 -78.1 0 c -2.9 1.5 -5.8 3.2 -8.5 5.1 L 446.5 858.7 l -0.8 0.4 c -19.4 12.1 -25.3 37.6 -13.3 56.9 c 3.6 5.7 8.4 10.5 14.3 13.9 l 634.5 375.6 c 2.7 1.8 5.6 3.5 8.5 5.1 c 24.5 12.6 53.6 12.6 78.1 0 c 2.9 -1.5 5.8 -3.2 8.5 -5.1 l 634.5 -375.6 C 1823.5 922.5 1831.2 908.9 1831.1 894.3 z"/>
<path fill="#181818" d="M 520.5 643.5 h 416.4 v 381.7 h -416.4 V 643.5 z M 1745.9 255.5 V 80.9 c 1 -43.7 -33.6 -79.9 -77.2 -80.9 H 588.2 C 544.6 1 510 37.3 511 80.9 V 255.5 l 638.8 170.3 L 1745.9 255.5 z"/>
<path fill="#404040" d="M 511 255.5 h 425.8 v 383.3 H 511 V 255.5 z"/>
<path fill="#808080" d="M 1362.7 255.5 H 936.8 v 383.3 L 1362.7 1022 h 383.3 V 638.8 L 1362.7 255.5 z"/>
<path fill="#404040" d="M 936.8 638.8 h 425.8 V 1022 H 936.8 V 638.8 z"/>
<path fill="#181818" d="M 936.8 1022 h 425.8 v 383.3 H 936.8 V 1022 z"/>
<path fill="#a0a0a0" d="M 520.5 1025.2 h 416.4 v 347 h -416.4 V 1025.2 z"/>
<path fill="#404040" d="M 1362.7 1022 h 383.3 v 383.3 h -383.3 V 1022 z"/>
<linearGradient id="SVGID_1_" gradientUnits="userSpaceOnUse" x1="1128.4584" y1="811.0833" x2="1128.4584" y2="1.9982" gradientTransform="matrix(1 0 0 -1 0 1705.3334)">
	<stop offset="0" style="stop-color: #202020"/>
	<stop offset="1" style="stop-color: #808080"/>
</linearGradient>
<path fill="url(#SVGID_1_)" d="M 1811.6 927.6 l -0.8 0.4 l -634.5 356.8 c -2.8 1.7 -5.6 3.3 -8.5 4.8 c -10.8 5.1 -22.5 8 -34.4 8.5 l -34.7 -20.3 c -2.9 -1.5 -5.8 -3.1 -8.5 -4.9 L 447.2 906 h -0.3 l -21 -11.8 v 722.4 c 0.3 48.2 39.7 87 87.8 86.7 h 1230.9 c 0.7 0 1.4 -0.3 2.1 -0.3 c 10.2 -0.7 20.2 -2.7 29.8 -6.2 c 4.1 -1.8 8.1 -3.8 12 -6.2 c 2.9 -1.6 7.8 -5.2 7.8 -5.2 c 21.8 -16.1 34.7 -41.6 34.8 -68.8 V 894.3 C 1831.1 908.1 1823.6 920.8 1811.6 927.6 z"/>
<path opacity="0.5" fill="#303030" enable-background="new    " d="M 1797 891.4 v 44.3 l -663.4 456.8 L 446.7 906.3 c 0 -0.2 -0.2 -0.4 -0.4 -0.4 l 0 0 l -63 -37.9 v -31.9 l 26 -0.4 l 54.9 31.5 l 1.3 0.4 l 4.7 3 c 0 0 645.6 368.3 647.3 369.2 l 24.7 14.5 c 2.1 -0.9 4.3 -1.7 6.8 -2.6 c 1.3 -0.9 640.9 -360.7 640.9 -360.7 L 1797 891.4 z"/>
<path fill="#404040" d="M 1811.6 927.6 l -0.8 0.5 l -634.5 356.8 c -2.8 1.7 -5.6 3.3 -8.5 4.8 c -24.6 12 -53.5 12 -78.1 0 c -2.9 -1.4 -5.8 -3 -8.5 -4.8 L 446.7 928.1 l -0.8 -0.5 c -12.3 -6.6 -19.9 -19.4 -20.1 -33.3 v 722.4 c 0.3 48.2 39.6 87 87.8 86.7 c 0 0 0 0 0 0 h 1229.6 c 48.2 0.3 87.5 -38.5 87.8 -86.7 c 0 0 0 0 0 0 V 894.3 C 1831.1 908.1 1823.6 920.8 1811.6 927.6 z"/>
<path opacity="0.1" enable-background="new    " d="M 1185.5 1279.6 l -9.5 5.3 c -2.8 1.8 -5.6 3.4 -8.5 4.8 c -10.5 5.1 -21.8 8.1 -33.5 8.9 l 241.4 285.5 l 421.1 101.5 c 11.5 -8.7 20.7 -20.2 26.7 -33.3 L 1185.5 1279.6 z"/>
<path opacity="0.05" enable-background="new    " d="M 1228.5 1255.4 l -52.5 29.5 c -2.8 1.8 -5.6 3.4 -8.5 4.8 c -10.5 5.1 -21.8 8.1 -33.5 8.9 l 113.1 311.8 l 549.5 75 c 21.6 -16.3 34.4 -41.7 34.4 -68.8 v -9.3 L 1228.5 1255.4 z"/>
<path fill="#808080" d="M 514.8 1703.3 h 1228.3 c 18.9 0.1 37.3 -5.9 52.6 -17 l -697.1 -408.3 c -2.9 -1.5 -5.8 -3.1 -8.5 -4.9 L 447.1 906.1 h -0.3 l -21 -11.8 v 719.9 C 425.8 1663.4 465.6 1703.3 514.8 1703.3 C 514.8 1703.3 514.8 1703.3 514.8 1703.3 z"/>
<path opacity="0.1" enable-background="new    " d="M 1022 418.7 v 908.3 c -0.1 31.8 -19.4 60.5 -49 72.4 c -9.1 3.9 -19 6 -29 6 H 425.8 V 383.3 H 511 v -42.6 h 433.1 C 987.1 340.8 1021.9 375.7 1022 418.7 z"/>
<path opacity="0.2" enable-background="new    " d="M 979.4 461.3 v 908.3 c 0.1 10.3 -2.1 20.5 -6.4 29.8 c -11.8 29.1 -40.1 48.3 -71.5 48.4 H 425.8 V 383.3 h 475.7 c 12.4 -0.1 24.5 3 35.3 8.9 C 962.9 405.3 979.4 432.1 979.4 461.3 z"/>
<path opacity="0.2" enable-background="new    " d="M 979.4 461.3 v 823.1 c -0.2 43 -34.9 77.9 -77.9 78.2 H 425.8 V 383.3 h 475.7 c 12.4 -0.1 24.5 3 35.3 8.9 C 962.9 405.3 979.4 432.1 979.4 461.3 z"/>
<path opacity="0.2" enable-background="new    " d="M 936.8 461.3 v 823.1 c 0 43.1 -34.9 78 -77.9 78.2 H 425.8 V 383.3 h 433.1 c 43.1 0 78 35 77.9 78 C 936.8 461.3 936.8 461.3 936.8 461.3 z"/>
<linearGradient id="SVGID_2_" gradientUnits="userSpaceOnUse" x1="162.7469" y1="1383.0741" x2="774.0864" y2="324.2592" gradientTransform="matrix(1 0 0 -1 0 1705.3334)">
	<stop offset="0" style="stop-color: #666666"/>
	<stop offset="0.5" style="stop-color: #333333"/>
	<stop offset="1" style="stop-color: #050505"/>
</linearGradient>
<path fill="url(#SVGID_2_)" d="M 78.1 383.3 h 780.7 c 43.1 0 78.1 34.9 78.1 78.1 v 780.7 c 0 43.1 -34.9 78.1 -78.1 78.1 H 78.1 c -43.1 0 -78.1 -34.9 -78.1 -78.1 V 461.3 C 0 418.2 34.9 383.3 78.1 383.3 z"/>
<path fill="#ffffff" d="M 244 710.6 c 19.2 -41 50.3 -75.3 89.2 -98.5 c 43.1 -24.7 92.1 -36.9 141.7 -35.5 c 46 -1 91.3 10.7 131.1 33.7 c 37.4 22.3 67.5 55 86.7 94.1 c 20.9 43.1 31.3 90.5 30.4 138.4 c 1 50 -9.7 99.6 -31.3 144.8 c -19.7 40.5 -50.7 74.4 -89.4 97.4 c -41.3 23.7 -88.4 35.7 -136 34.6 c -46.9 1.1 -93.3 -10.7 -134 -34.1 c -37.7 -22.3 -68.2 -55.1 -87.9 -94.3 c -21 -42.5 -31.6 -89.4 -30.7 -136.7 C 212.8 804.9 223.2 755.7 244 710.6 z M 339 941.9 c 10.3 25.9 27.7 48.4 50.2 64.8 c 22.9 16 50.4 24.3 78.4 23.6 c 29.8 1.2 59.1 -7.4 83.6 -24.4 c 22.2 -16.4 39.2 -38.9 48.7 -64.8 c 10.7 -28.9 15.9 -59.6 15.5 -90.4 c 0.3 -31.1 -4.6 -62.1 -14.6 -91.6 c -8.9 -26.6 -25.2 -50.1 -47.2 -67.5 c -23.9 -17.8 -53.2 -26.8 -82.9 -25.6 c -28.6 -0.7 -56.6 7.6 -80.2 23.8 c -22.9 16.5 -40.6 39.2 -51.1 65.4 c -23.3 60 -23.4 126.6 -0.3 186.7 L 339 941.9 z"/>
<path fill="#b0b0b0" d="M 1362.7 255.5 h 383.3 v 383.3 h -383.3 V 255.5 z"/>
</svg>