<svg class="svg-icon" style="width: 1em; height: 1em;vertical-align: middle;fill: currentColor;overflow: hidden;" viewBox="0 0 1024 1024" version="1.1" xmlns="http://www.w3.org/2000/svg">
    <path d="M851.76 176.8L534.576 49.44a60.224 60.224 0 0 0-45.152 0l-317.184 127.456a63.472 63.472 0 0 0-39.472 59.488v91.088c0 272.624 130.656 518.4 340.992 641.328a75.776 75.776 0 0 0 76.384 0 685.696 685.696 0 0 0 282.08-335.36 24 24 0 1 0-44.432-18.112 637.744 637.744 0 0 1-261.856 312 27.312 27.312 0 0 1-27.952 0c-195.664-114.384-317.216-344.256-317.216-599.888v-91.088a16 16 0 0 1 9.376-14.944l317.2-127.456a12.384 12.384 0 0 1 9.328 0l317.184 127.424a16 16 0 0 1 9.376 14.96v91.088a24 24 0 1 0 48 0v-91.088a63.472 63.472 0 0 0-39.472-59.536z" fill="#666666" />
    <path d="M840.768 397.552a24.176 24.176 0 0 0 0 34.08 24.848 24.848 0 0 0 16.976 6.88 21.808 21.808 0 0 0 4.64-0.48 14.4 14.4 0 0 0 4.464-1.28 34.48 34.48 0 0 0 4.176-2.24 33.6 33.6 0 0 0 3.664-2.88 24.576 24.576 0 0 0 7.056-17.12 24.208 24.208 0 0 0-7.056-16.96 24.768 24.768 0 0 0-33.92 0z" fill="#666666" />
    <path d="M372.352 502.24a70.144 70.144 0 1 0 68.8 83.568h155.568a70.128 70.128 0 1 0 68.8-83.568 69.248 69.248 0 0 0-29.376 6.672l-70.592-125.248a70.048 70.048 0 1 0-95.296-1.744l-72.336 125.296a69.584 69.584 0 0 0-25.568-4.976z m0 92.288a22.144 22.144 0 1 1 22.144-22.144 22.176 22.176 0 0 1-22.144 22.192z m293.136-44.288a22.144 22.144 0 1 1-22.144 22.144 22.176 22.176 0 0 1 22.144-22.144z m-146.56-240.752a22.144 22.144 0 1 1-22.16 22.128 22.16 22.16 0 0 1 22.16-22.08z m-4.48 91.824c1.504 0.096 2.944 0.464 4.48 0.464 0.56 0 1.072-0.16 1.6-0.176l76.8 136.208h-161.6v-0.08z" fill="#000000" />
</svg>